<svg width="682" height="131" viewBox="0 0 682 131" fill="none" xmlns="http://www.w3.org/2000/svg">
<path d="M522.722 36.6351C522.722 41.3307 518.381 44.5937 512.191 44.5937C505.92 44.5937 501.418 41.3307 501.418 36.6351C501.418 32.0987 505.92 28.8357 512.191 28.8357C518.381 28.8357 522.722 32.0987 522.722 36.6351Z" fill="white"/>
<path d="M521.918 48.8557V90.9126H502.222V48.8557C502.222 48.8557 507.967 48.8557 511.974 48.8557C515.98 48.8557 521.918 48.8557 521.918 48.8557Z" fill="white"/>
<path d="M348.702 44.3549V33.3721L329.005 36.2372V44.3549H315.9V58.2824H329.005V90.9126H348.702V58.2824H362.932V44.3549H348.702Z" fill="white"/>
<path d="M312.981 73.4833C312.981 85.1028 301.645 92.5839 284.681 92.5839C273.506 92.5839 264.1 89.6392 257.588 85.6599V71.2549C264.422 75.473 273.265 78.4176 282.43 78.4176C288.781 78.4176 291.837 77.3034 291.837 74.8363C291.837 72.6874 290.148 71.4937 284.521 70.5386L276.481 69.1061C262.975 66.7185 257.186 60.9087 257.186 51.5972C257.186 41.0123 266.512 33.5312 285.968 33.5312C297.866 33.5312 305.423 36.5555 309.604 39.1022V52.9502C305.584 50.7218 297.947 48.0954 288.54 48.0954C281.064 48.0954 278.169 49.3688 278.169 51.438C278.169 53.2685 279.616 54.0644 284.762 54.7806L293.766 56.2132C306.79 58.362 312.981 63.3759 312.981 73.4833Z" fill="white"/>
<path d="M407.134 67.2757C407.134 74.3588 403.918 78.0198 397.728 78.0198C391.698 78.0198 388.964 74.7568 388.964 67.6736V44.355H369.268V72.4488C369.268 85.3417 375.94 92.584 388.562 92.584C397.486 92.584 403.998 88.6843 407.134 81.2828V90.9127H426.831V44.355H407.134V67.2757Z" fill="white"/>
<path fill-rule="evenodd" clip-rule="evenodd" d="M456.433 42.2857C465.839 42.2857 472.11 46.265 475.326 54.3828V33.6109H495.023V90.9127H475.326V80.4869C472.029 88.3659 465.115 92.5043 455.146 92.5043C441.559 92.5043 433.118 81.9194 433.118 67.7532C432.877 52.9502 442.605 42.2857 456.433 42.2857ZM453.538 67.3553C453.538 73.4038 457.799 77.6218 464.392 77.6218C471.145 77.6218 475.406 73.2446 475.406 67.1961C475.406 61.3067 471.306 57.1683 464.472 57.1683C457.799 57.1683 453.538 61.3067 453.538 67.3553Z" fill="white"/>
<path d="M557.569 78.0197C563.759 78.0197 566.975 74.3587 566.975 67.2756V44.3549H586.672V90.9126H566.975V81.2827C563.84 88.6842 557.328 92.5839 548.404 92.5839C535.782 92.5839 529.109 85.3415 529.109 72.4487V44.3549H548.806V67.6735C548.806 74.7566 551.539 78.0197 557.569 78.0197Z" fill="white"/>
<path d="M646.76 55.0194C649.494 46.265 655.282 42.2857 664.126 42.2857C675.783 42.2857 681.974 49.7668 681.974 63.4555V90.9126H662.277V67.9123C662.277 61.7842 660.106 58.1233 655.282 58.1233C650.217 58.1233 647.725 62.023 647.725 67.9123V90.9126H628.109V67.196C628.109 61.7046 625.938 58.1233 621.195 58.1233C616.21 58.1233 613.557 62.3413 613.557 68.7878L613.477 68.7082V90.9126H593.86V44.3549H613.316V55.2582C616.049 46.265 621.677 42.2857 630.36 42.2857C638.962 42.2857 644.67 46.8221 646.76 55.0194Z" fill="white"/>
<path d="M137.304 62.5779C136.507 58.5101 133.08 56.197 127.421 56.197C121.683 56.197 118.017 58.7494 116.901 62.5779H137.304Z" fill="white"/>
<path fill-rule="evenodd" clip-rule="evenodd" d="M0.734864 59.9715C1.9662 31.7691 2.58188 17.668 11.2625 8.89217C11.9991 8.14751 12.7718 7.43945 13.5778 6.77059C23.0768 -1.11214 37.1779 -0.496474 65.3803 0.734864L175.276 5.53301C203.478 6.76434 217.579 7.38001 226.355 16.0606C227.1 16.7972 227.808 17.5699 228.476 18.3759C236.359 27.8749 235.743 41.9761 234.512 70.1784C234.125 79.0549 233.798 86.5345 233.262 92.8908C237.897 96.3138 243.441 98.5664 248.053 99.3032C248.94 99.4449 249.222 100.644 248.416 101.041C245.177 102.635 239.208 105.139 231.337 106.557C229.895 112.86 227.664 117.537 223.985 121.258C223.248 122.002 222.475 122.71 221.669 123.379C212.17 131.262 198.069 130.646 169.867 129.415L59.9715 124.617C31.7691 123.385 17.668 122.77 8.89217 114.089C8.14751 113.353 7.43945 112.58 6.77059 111.774C-1.11214 102.275 -0.496474 88.1738 0.734864 59.9715ZM71.4219 55.3196H48.8677V35.1399H28.9435V90.9731H48.8677V69.5969H71.4219V90.9731H91.3461V35.1399H71.4219V55.3196ZM126.465 42.2387C144.397 42.2387 153.004 51.5708 153.004 65.7684V71.1124H117.38C119.691 75.3398 125.27 77.8124 134.036 77.8124C141.05 77.8124 146.389 76.0576 151.41 73.0267V86.8255C146.31 90.1755 138.021 92.5683 129.015 92.5683C109.41 92.5683 97.6148 82.0398 97.6148 66.9648C97.6148 52.7672 108.294 42.2387 126.465 42.2387ZM183.429 69.4374L172.909 44.3125H152.108L172.511 86.7457L162.07 106.128H184.067L215.308 44.3125H194.666L183.429 69.4374Z" fill="white"/>
</svg>
